<svg width="112" height="26" viewBox="0 0 112 26" fill="none" xmlns="http://www.w3.org/2000/svg">
<path d="M4.728 16.24H10.656V19H0.912V16.288L6.72 8.464H0.936V5.704H10.584V8.416L4.728 16.24ZM14.9616 4.12C14.3696 4.12 13.8736 3.936 13.4736 3.568C13.0896 3.184 12.8976 2.712 12.8976 2.152C12.8976 1.592 13.0896 1.128 13.4736 0.759999C13.8736 0.375999 14.3696 0.183999 14.9616 0.183999C15.5536 0.183999 16.0416 0.375999 16.4256 0.759999C16.8256 1.128 17.0256 1.592 17.0256 2.152C17.0256 2.712 16.8256 3.184 16.4256 3.568C16.0416 3.936 15.5536 4.12 14.9616 4.12ZM16.6176 5.704V19H13.2576V5.704H16.6176ZM23.2973 7.624C23.7293 7.016 24.3213 6.512 25.0733 6.112C25.8413 5.696 26.7133 5.488 27.6893 5.488C28.8253 5.488 29.8493 5.768 30.7613 6.328C31.6893 6.888 32.4173 7.688 32.9453 8.728C33.4893 9.752 33.7613 10.944 33.7613 12.304C33.7613 13.664 33.4893 14.872 32.9453 15.928C32.4173 16.968 31.6893 17.776 30.7613 18.352C29.8493 18.928 28.8253 19.216 27.6893 19.216C26.7133 19.216 25.8493 19.016 25.0973 18.616C24.3613 18.216 23.7613 17.712 23.2973 17.104V25.336H19.9373V5.704H23.2973V7.624ZM30.3293 12.304C30.3293 11.504 30.1613 10.816 29.8253 10.24C29.5053 9.648 29.0733 9.2 28.5293 8.896C28.0013 8.592 27.4253 8.44 26.8013 8.44C26.1933 8.44 25.6173 8.6 25.0733 8.92C24.5453 9.224 24.1133 9.672 23.7773 10.264C23.4573 10.856 23.2973 11.552 23.2973 12.352C23.2973 13.152 23.4573 13.848 23.7773 14.44C24.1133 15.032 24.5453 15.488 25.0733 15.808C25.6173 16.112 26.1933 16.264 26.8013 16.264C27.4253 16.264 28.0013 16.104 28.5293 15.784C29.0733 15.464 29.5053 15.008 29.8253 14.416C30.1613 13.824 30.3293 13.12 30.3293 12.304ZM51.2029 19.96V23.152H37.1149V19.96H51.2029ZM58.5238 7.624C58.9558 7.016 59.5478 6.512 60.2998 6.112C61.0678 5.696 61.9398 5.488 62.9158 5.488C64.0518 5.488 65.0758 5.768 65.9878 6.328C66.9158 6.888 67.6438 7.688 68.1718 8.728C68.7158 9.752 68.9878 10.944 68.9878 12.304C68.9878 13.664 68.7158 14.872 68.1718 15.928C67.6438 16.968 66.9158 17.776 65.9878 18.352C65.0758 18.928 64.0518 19.216 62.9158 19.216C61.9398 19.216 61.0758 19.016 60.3238 18.616C59.5878 18.216 58.9878 17.712 58.5238 17.104V25.336H55.1638V5.704H58.5238V7.624ZM65.5558 12.304C65.5558 11.504 65.3878 10.816 65.0518 10.24C64.7318 9.648 64.2998 9.2 63.7558 8.896C63.2278 8.592 62.6518 8.44 62.0278 8.44C61.4198 8.44 60.8438 8.6 60.2998 8.92C59.7718 9.224 59.3398 9.672 59.0038 10.264C58.6838 10.856 58.5238 11.552 58.5238 12.352C58.5238 13.152 58.6838 13.848 59.0038 14.44C59.3398 15.032 59.7718 15.488 60.2998 15.808C60.8438 16.112 61.4198 16.264 62.0278 16.264C62.6518 16.264 63.2278 16.104 63.7558 15.784C64.2998 15.464 64.7318 15.008 65.0518 14.416C65.3878 13.824 65.5558 13.12 65.5558 12.304ZM70.5654 12.304C70.5654 10.96 70.8294 9.768 71.3574 8.728C71.9014 7.688 72.6294 6.888 73.5414 6.328C74.4694 5.768 75.5014 5.488 76.6374 5.488C77.6294 5.488 78.4934 5.688 79.2294 6.088C79.9814 6.488 80.5814 6.992 81.0294 7.6V5.704H84.4134V19H81.0294V17.056C80.5974 17.68 79.9974 18.2 79.2294 18.616C78.4774 19.016 77.6054 19.216 76.6134 19.216C75.4934 19.216 74.4694 18.928 73.5414 18.352C72.6294 17.776 71.9014 16.968 71.3574 15.928C70.8294 14.872 70.5654 13.664 70.5654 12.304ZM81.0294 12.352C81.0294 11.536 80.8694 10.84 80.5494 10.264C80.2294 9.672 79.7974 9.224 79.2534 8.92C78.7094 8.6 78.1254 8.44 77.5014 8.44C76.8774 8.44 76.3014 8.592 75.7734 8.896C75.2454 9.2 74.8134 9.648 74.4774 10.24C74.1574 10.816 73.9974 11.504 73.9974 12.304C73.9974 13.104 74.1574 13.808 74.4774 14.416C74.8134 15.008 75.2454 15.464 75.7734 15.784C76.3174 16.104 76.8934 16.264 77.5014 16.264C78.1254 16.264 78.7094 16.112 79.2534 15.808C79.7974 15.488 80.2294 15.04 80.5494 14.464C80.8694 13.872 81.0294 13.168 81.0294 12.352ZM92.7831 19.216C91.6951 19.216 90.7191 19.024 89.8551 18.64C88.9911 18.24 88.3031 17.704 87.7911 17.032C87.2951 16.36 87.0231 15.616 86.9751 14.8H90.3591C90.4231 15.312 90.6711 15.736 91.1031 16.072C91.5511 16.408 92.1031 16.576 92.7591 16.576C93.3991 16.576 93.8951 16.448 94.2471 16.192C94.6151 15.936 94.7991 15.608 94.7991 15.208C94.7991 14.776 94.5751 14.456 94.1271 14.248C93.6951 14.024 92.9991 13.784 92.0391 13.528C91.0471 13.288 90.2311 13.04 89.5911 12.784C88.9671 12.528 88.4231 12.136 87.9591 11.608C87.5111 11.08 87.2871 10.368 87.2871 9.472C87.2871 8.736 87.4951 8.064 87.9111 7.456C88.3431 6.848 88.9511 6.368 89.7351 6.016C90.5351 5.664 91.4711 5.488 92.5431 5.488C94.1271 5.488 95.3911 5.888 96.3351 6.688C97.2791 7.472 97.7991 8.536 97.8951 9.88H94.6791C94.6311 9.352 94.4071 8.936 94.0071 8.632C93.6231 8.312 93.1031 8.152 92.4471 8.152C91.8391 8.152 91.3671 8.264 91.0311 8.488C90.7111 8.712 90.5511 9.024 90.5511 9.424C90.5511 9.872 90.7751 10.216 91.2231 10.456C91.6711 10.68 92.3671 10.912 93.3111 11.152C94.2711 11.392 95.0631 11.64 95.6871 11.896C96.3111 12.152 96.8471 12.552 97.2951 13.096C97.7591 13.624 97.9991 14.328 98.0151 15.208C98.0151 15.976 97.7991 16.664 97.3671 17.272C96.9511 17.88 96.3431 18.36 95.5431 18.712C94.7591 19.048 93.8391 19.216 92.7831 19.216ZM105.861 19.216C104.773 19.216 103.797 19.024 102.933 18.64C102.069 18.24 101.381 17.704 100.869 17.032C100.373 16.36 100.101 15.616 100.053 14.8H103.437C103.501 15.312 103.749 15.736 104.181 16.072C104.629 16.408 105.181 16.576 105.837 16.576C106.477 16.576 106.973 16.448 107.325 16.192C107.693 15.936 107.877 15.608 107.877 15.208C107.877 14.776 107.653 14.456 107.205 14.248C106.773 14.024 106.077 13.784 105.117 13.528C104.125 13.288 103.309 13.04 102.669 12.784C102.045 12.528 101.501 12.136 101.037 11.608C100.589 11.08 100.365 10.368 100.365 9.472C100.365 8.736 100.573 8.064 100.989 7.456C101.421 6.848 102.029 6.368 102.813 6.016C103.613 5.664 104.549 5.488 105.621 5.488C107.205 5.488 108.469 5.888 109.413 6.688C110.357 7.472 110.877 8.536 110.973 9.88H107.757C107.709 9.352 107.485 8.936 107.085 8.632C106.701 8.312 106.181 8.152 105.525 8.152C104.917 8.152 104.445 8.264 104.109 8.488C103.789 8.712 103.629 9.024 103.629 9.424C103.629 9.872 103.853 10.216 104.301 10.456C104.749 10.68 105.445 10.912 106.389 11.152C107.349 11.392 108.141 11.64 108.765 11.896C109.389 12.152 109.925 12.552 110.373 13.096C110.837 13.624 111.077 14.328 111.093 15.208C111.093 15.976 110.877 16.664 110.445 17.272C110.029 17.88 109.421 18.36 108.621 18.712C107.837 19.048 106.917 19.216 105.861 19.216Z" fill="#04021D"/>
</svg>
